<svg width="57" height="56" viewBox="0 0 57 56" fill="none" xmlns="http://www.w3.org/2000/svg">
<path d="M9.50136 26.0574C2.93257 23.4774 -0.296779 16.0711 2.28534 9.50166C4.86457 2.9348 12.2688 -0.297759 18.8411 2.28473C25.3954 4.8596 28.6329 12.2871 26.058 18.8414C25.9167 19.2014 26.0935 19.6079 26.4536 19.7492C26.8109 19.8895 27.2192 19.7136 27.3614 19.3536C30.2179 12.0802 26.6258 3.83876 19.3533 0.981343C12.0799 -1.87517 3.83847 1.7178 0.981957 8.98942C-1.87546 16.2619 1.71659 24.5033 8.98912 27.3608C9.86044 27.7017 10.3544 26.3921 9.50136 26.0574Z" fill="url(#paint0_linear_14_11624)"/>
<path d="M13.5858 22.9585C13.5858 23.3449 13.8994 23.6585 14.2858 23.6585C14.6723 23.6585 14.9858 23.3449 14.9858 22.9585V21.416C18.628 21.044 20.407 16.8361 17.9217 14.8346C16.7811 13.916 15.245 13.6642 13.7262 13.3398C12.586 13.1027 11.5246 12.9057 11.1286 11.8441C10.9326 11.32 10.9709 10.7194 11.2352 10.1543C12.2736 7.94416 15.8819 8.3756 17.5261 9.83801C17.8132 10.0941 18.2562 10.0695 18.5141 9.77968C18.7711 9.49075 18.7447 9.04869 18.4558 8.79166C17.5269 7.96497 16.2078 7.43176 14.881 7.27317V5.38372C14.881 4.99726 14.5675 4.68372 14.181 4.68372C13.7946 4.68372 13.481 4.99726 13.481 5.38372V7.25266C9.11688 7.68648 8.38043 12.761 11.5761 14.1793C13.5165 15.0395 17.7914 14.886 17.6737 17.3184C17.6336 18.1387 17.095 19.0255 16.3339 19.525C14.6622 20.621 11.7776 19.8376 10.4924 18.382C10.2344 18.0904 9.79327 18.0639 9.50433 18.32C9.21449 18.5762 9.18715 19.0182 9.44235 19.3081C10.4448 20.4424 12.0479 21.1907 13.5858 21.3913V22.9585Z" fill="url(#paint1_linear_14_11624)"/>
<path d="M55.2423 9.80883C41.4285 7.29685 31.3574 17.2764 25.939 24.694C23.4596 23.4541 12.4945 24.6553 10.6883 32.6409C10.4728 33.5883 11.4546 34.3654 12.3253 33.9525C15.289 32.5575 19.4377 31.4038 21.4295 32.7051C21.5936 33.2642 21.7232 33.1351 24.7048 36.1974C24.9782 36.4708 25.4212 36.4708 25.6946 36.1974C25.968 35.9239 25.968 35.481 25.6946 35.2075L22.8217 32.3346C24.1775 29.6729 32.6747 14.0781 46.5877 11.2551L54.5863 19.2527C53.5573 25.1777 50.3188 33.182 41.0986 39.802C40.7847 39.7953 40.5211 39.9367 40.4151 40.2864C38.6086 41.5299 36.5934 42.7224 34.3225 43.8354L31.3201 40.8331C31.0467 40.5596 30.6037 40.5596 30.3303 40.8331C30.0568 41.1065 30.0568 41.5495 30.3303 41.8229C33.7257 45.1683 33.3257 44.91 33.7297 45.1283C33.7497 45.1934 33.7691 45.259 33.8093 45.3183C35.4591 47.7501 33.3718 52.641 32.6928 54.0838C32.2779 54.9669 33.0696 55.9373 34.0044 55.7208C39.9544 54.3737 41.6515 48.3307 42.1054 45.7941C42.3395 44.4863 42.5462 42.1658 42.0932 40.8135C58.4306 28.9691 56.5075 12.803 56.192 10.785C56.1145 10.2892 55.7326 9.89725 55.2423 9.80883ZM21.7822 31.2994C18.8544 29.832 14.1518 31.6031 12.174 32.4823C13.152 29.0962 16.0413 27.4082 18.3464 26.5833C21.3935 25.4933 24.2001 25.5976 25.1082 25.8596C23.4525 28.2501 22.3364 30.2469 21.7822 31.2994ZM40.0628 48.0582C39.2389 50.3642 37.5508 53.2553 34.163 54.2351C35.1337 52.0621 36.6794 47.7462 35.2092 44.9494C37.2856 43.9174 39.172 42.8248 40.8671 41.6829C41.0553 42.8516 41.0279 45.36 40.0628 48.0582ZM48.295 10.9825C50.365 10.7294 52.5445 10.7586 54.8321 11.1578C54.9541 12.0166 55.1973 14.3654 54.8372 17.5239L48.295 10.9825Z" fill="url(#paint2_linear_14_11624)"/>
<path d="M35.7268 30.8006C34.7442 29.8181 33.1428 29.8181 32.1584 30.8006L25.0892 37.8708C24.1057 38.8543 24.1057 40.4548 25.0892 41.4383C26.0763 42.4254 27.674 42.4237 28.6575 41.4383L35.7268 34.369C36.7103 33.3855 36.7103 31.7841 35.7268 30.8006ZM34.7369 33.3792L27.6677 40.4484C27.2429 40.8741 26.5037 40.8732 26.079 40.4484C25.6415 40.0109 25.6415 39.2982 26.079 38.8607L33.1483 31.7905C33.5848 31.3539 34.2986 31.3521 34.7369 31.7905C35.1744 32.2289 35.1744 32.9407 34.7369 33.3792Z" fill="url(#paint3_linear_14_11624)"/>
<path d="M47.5279 25.1632C50.2554 22.4356 48.3176 17.7239 44.4462 17.7239C40.574 17.7239 38.6377 22.4363 41.3646 25.1632C43.0654 26.864 45.8213 26.8698 47.5279 25.1632ZM44.4462 19.1239C47.0946 19.1239 48.3811 22.3303 46.538 24.1734C44.7811 25.9303 41.4885 24.7888 41.4885 22.0816C41.4885 20.4444 42.8142 19.1239 44.4462 19.1239Z" fill="url(#paint4_linear_14_11624)"/>
<path d="M25.962 44.5627L23.2076 48.1019C23.0965 47.7198 23.1785 47.0918 22.6051 46.7548C22.339 46.598 22.0127 46.5707 21.7119 46.6746L18.4881 47.792L19.2765 44.4297C19.3994 43.8473 19.0415 43.3009 18.4735 43.1901L17.8938 43.0196L22.2123 39.8815C22.5258 39.6545 22.5951 39.217 22.3672 38.9044C22.1403 38.5918 21.7019 38.5207 21.3901 38.7494C16.1471 42.5608 16.4758 42.3139 16.4245 42.367C15.7863 43.0034 16.0852 44.03 16.9094 44.189L17.8318 44.4606L16.9714 48.1274C16.7989 48.9449 17.5549 49.596 18.3413 49.3242L21.7894 48.1293L21.9707 49.1164C22.1196 49.9215 23.1179 50.2947 23.852 49.5457L27.0667 45.4231C27.3037 45.1187 27.2499 44.6785 26.9446 44.4406C26.6401 44.2027 26.199 44.2583 25.962 44.5627Z" fill="url(#paint5_linear_14_11624)"/>
<defs>
<linearGradient id="paint0_linear_14_11624" x1="14.1714" y1="0" x2="14.1714" y2="27.4169" gradientUnits="userSpaceOnUse">
<stop offset="0.331731" stop-color="#1ECCF3"/>
<stop offset="1" stop-color="#3055EB"/>
</linearGradient>
<linearGradient id="paint1_linear_14_11624" x1="14.1719" y1="4.68372" x2="14.1719" y2="23.6585" gradientUnits="userSpaceOnUse">
<stop offset="0.331731" stop-color="#1ECCF3"/>
<stop offset="1" stop-color="#3055EB"/>
</linearGradient>
<linearGradient id="paint2_linear_14_11624" x1="33.5406" y1="9.41309" x2="33.5406" y2="55.7515" gradientUnits="userSpaceOnUse">
<stop offset="0.331731" stop-color="#1ECCF3"/>
<stop offset="1" stop-color="#3055EB"/>
</linearGradient>
<linearGradient id="paint3_linear_14_11624" x1="30.408" y1="30.0637" x2="30.408" y2="42.178" gradientUnits="userSpaceOnUse">
<stop offset="0.331731" stop-color="#1ECCF3"/>
<stop offset="1" stop-color="#3055EB"/>
</linearGradient>
<linearGradient id="paint4_linear_14_11624" x1="44.4463" y1="17.7239" x2="44.4463" y2="26.441" gradientUnits="userSpaceOnUse">
<stop offset="0.331731" stop-color="#1ECCF3"/>
<stop offset="1" stop-color="#3055EB"/>
</linearGradient>
<linearGradient id="paint5_linear_14_11624" x1="21.6472" y1="38.6151" x2="21.6472" y2="49.9513" gradientUnits="userSpaceOnUse">
<stop offset="0.331731" stop-color="#1ECCF3"/>
<stop offset="1" stop-color="#3055EB"/>
</linearGradient>
</defs>
</svg>
