<svg width="62" height="66" viewBox="0 0 62 66" fill="none" xmlns="http://www.w3.org/2000/svg">
<path fill-rule="evenodd" clip-rule="evenodd" d="M22.0588 0.48717C22.3937 -0.0154456 23.0729 -0.151261 23.5753 0.183807L27.7668 2.97801L24.9725 7.16933C24.6374 7.67193 23.9584 7.80775 23.4557 7.47267C22.9532 7.13761 22.8174 6.45852 23.1525 5.95592L23.8825 4.86079C11.4433 7.92091 2.1875 19.4177 2.1875 32.8126C2.1875 48.5182 14.9194 61.2501 30.625 61.2501C31.229 61.2501 31.7188 61.7399 31.7188 62.3438C31.7188 62.9478 31.229 63.4376 30.625 63.4376C13.7113 63.4376 0 49.7263 0 32.8126C0 18.3881 9.9778 5.99085 23.4338 2.71842L22.3619 2.00392C21.8595 1.66886 21.7236 0.98977 22.0588 0.48717ZM29.5312 3.28137C29.5312 2.67732 30.021 2.18762 30.625 2.18762C32.1654 2.18762 33.6801 2.30144 35.1606 2.52133C49.9238 4.71375 61.25 17.4395 61.25 32.8126C61.25 47.2376 51.2719 59.6342 37.8162 62.9067L38.8878 63.6213C39.3905 63.9565 39.5264 64.6355 39.1912 65.1382C38.8561 65.6406 38.1771 65.7765 37.6747 65.4414L34.8657 63.5688C34.7771 63.5098 34.699 63.4442 34.6312 63.3739C34.5492 63.3444 34.4691 63.3046 34.3932 63.2539C33.8907 62.9189 33.7549 62.2397 34.09 61.7373L36.2775 58.456C36.6126 57.9533 37.2916 57.8175 37.7941 58.1526C38.2968 58.4877 38.4326 59.1667 38.0975 59.6694L37.3675 60.7645C49.807 57.7044 59.0625 46.2071 59.0625 32.8126C59.0625 18.5395 48.5461 6.72063 34.8394 4.68509C33.4648 4.48095 32.0576 4.37512 30.625 4.37512C30.021 4.37512 29.5312 3.88543 29.5312 3.28137ZM7.65625 32.8126C7.65625 20.1273 17.9397 9.84387 30.625 9.84387C43.3103 9.84387 53.5938 20.1273 53.5938 32.8126C53.5938 45.4979 43.3103 55.7813 30.625 55.7813C17.9397 55.7813 7.65625 45.4979 7.65625 32.8126ZM9.87203 31.7188H20.7904C20.9468 22.4268 23.0923 17.0126 25.3645 13.8786C25.7666 13.3241 26.1708 12.8435 26.5659 12.4276C17.3787 14.2467 10.3697 22.1214 9.87203 31.7188ZM30.7105 12.0659C30.6981 12.071 30.6849 12.0764 30.6714 12.082C30.4846 12.1603 30.1976 12.2976 29.8423 12.5221C29.1344 12.9697 28.1444 13.771 27.1355 15.1626C25.1978 17.8351 23.1341 22.7667 22.9782 31.7188H38.2732C38.1275 22.0173 36.0476 17.0975 34.1348 14.624C33.1459 13.3452 32.1849 12.697 31.512 12.3682C31.1732 12.2027 30.9011 12.1152 30.7272 12.0702C30.7215 12.0687 30.716 12.0673 30.7105 12.0659ZM38.2732 33.9063H22.9782C23.1341 42.8585 25.1978 47.7902 27.1355 50.4627C28.1444 51.8541 29.1344 52.6556 29.8423 53.1032C30.1976 53.3276 30.4846 53.465 30.6714 53.5431C30.6849 53.5488 30.6981 53.5543 30.7105 53.5593C30.716 53.558 30.7215 53.5564 30.7272 53.5551C30.9011 53.5101 31.1732 53.4226 31.512 53.257C32.1849 52.9282 33.1459 52.28 34.1348 51.0012C36.0476 48.5278 38.1275 43.6079 38.2732 33.9063ZM26.5659 53.1977C26.1708 52.7816 25.7666 52.301 25.3645 51.7467C23.0923 48.6127 20.9468 43.1984 20.7904 33.9063H9.87203C10.3697 43.5038 17.3787 51.3786 26.5659 53.1977ZM35.2472 53.078C35.453 52.8512 35.6595 52.6055 35.8652 52.3395C38.1738 49.354 40.3152 43.8991 40.4609 33.9063H51.378C50.8904 43.3067 44.1564 51.0544 35.2472 53.078ZM51.378 31.7188H40.4609C40.3152 21.7261 38.1738 16.2711 35.8652 13.2858C35.6595 13.0198 35.453 12.7741 35.2472 12.5473C44.1564 14.5708 50.8904 22.3185 51.378 31.7188Z" fill="url(#paint0_linear_14_11618)"/>
<defs>
<linearGradient id="paint0_linear_14_11618" x1="30.625" y1="0" x2="30.625" y2="65.6252" gradientUnits="userSpaceOnUse">
<stop offset="0.331731" stop-color="#1ECCF3"/>
<stop offset="1" stop-color="#3055EB"/>
</linearGradient>
</defs>
</svg>
