<svg width="67" height="68" viewBox="0 0 67 68" fill="none" xmlns="http://www.w3.org/2000/svg">
<path d="M12.9397 35.8484C12.7276 35.8484 12.5155 35.7423 12.3034 35.6363C11.8791 35.3181 11.7731 34.5757 12.0913 34.1514L21.3185 21.6363C21.6367 21.212 22.3791 21.106 22.8034 21.4241C23.2276 21.7423 23.3337 22.4847 23.0155 22.909L13.7882 35.4241C13.5761 35.7423 13.2579 35.8484 12.9397 35.8484Z" fill="url(#paint0_linear_14_11637)"/>
<path d="M14.9553 26.409C14.1068 26.409 13.3643 26.0909 12.728 25.5606C12.0916 24.9242 11.7734 24.1818 11.7734 23.3333C11.7734 21.5303 13.1522 20.1515 14.8492 20.0454C15.6977 20.0454 16.5462 20.3636 17.0765 20.8939C17.7128 21.5303 18.031 22.2727 18.031 23.1212C18.1371 24.9242 16.7583 26.409 14.9553 26.409ZM14.9553 22.1666C14.3189 22.1666 13.8946 22.6969 13.8946 23.2272C13.8946 23.5454 14.0007 23.7575 14.2128 23.9697C14.425 24.1818 14.6371 24.2878 14.9553 24.2878C15.5916 24.2878 16.0159 23.7575 16.0159 23.2272C16.0159 22.909 15.9098 22.6969 15.6977 22.4848C15.4856 22.2727 15.2734 22.1666 14.9553 22.1666Z" fill="url(#paint1_linear_14_11637)"/>
<path d="M20.258 37.0151C18.561 37.0151 17.0762 35.6364 17.0762 33.9394C17.0762 33.0909 17.3944 32.2424 17.9247 31.7121C18.561 31.0757 19.3034 30.7576 20.1519 30.7576C21.0004 30.7576 21.8489 31.0757 22.3792 31.6061C23.0156 32.2424 23.3337 32.9848 23.3337 33.8333C23.4398 35.5303 22.061 37.0151 20.258 37.0151ZM20.258 32.7727C19.9398 32.7727 19.7277 32.8788 19.5156 33.0909C19.3034 33.303 19.1974 33.5151 19.1974 33.8333C19.1974 34.4697 19.7277 34.8939 20.258 34.8939C20.8944 34.8939 21.3186 34.3636 21.3186 33.8333C21.3186 33.5151 21.2125 33.303 21.0004 33.0909C20.7883 32.8788 20.5762 32.7727 20.258 32.7727Z" fill="url(#paint2_linear_14_11637)"/>
<path d="M30.7576 61.5152C13.7879 61.5152 0 47.7273 0 30.7576C0 13.7879 13.7879 0 30.7576 0C38.3939 0 45.7121 2.75758 51.4394 7.95455C51.6515 8.16667 51.7576 8.37879 51.7576 8.69697C51.7576 9.01515 51.6515 9.22727 51.4394 9.43939L31.8182 30.9697L35.1061 60.0303C35.1061 60.3485 35.1061 60.5606 34.8939 60.7727C34.6818 60.9849 34.4697 61.0909 34.1515 61.197C33.197 61.4091 32.0303 61.5152 30.7576 61.5152ZM30.7576 2.12121C14.9545 2.12121 2.12121 14.9545 2.12121 30.7576C2.12121 46.5606 14.9545 59.3939 30.7576 59.3939C31.5 59.3939 32.2424 59.3939 32.9848 59.2879L29.697 30.7576C29.697 30.4394 29.803 30.1212 30.0152 29.9091L49.2121 8.80303C44.0152 4.45455 37.5455 2.12121 30.7576 2.12121Z" fill="url(#paint3_linear_14_11637)"/>
<path d="M58.8641 51.9697C58.6519 51.9697 58.4398 51.8637 58.2277 51.7576C50.2731 45.5 35.1065 33.3031 35.0004 33.197C34.7883 32.9849 34.6822 32.7728 34.5762 32.4546C34.5762 32.1364 34.6822 31.9243 34.8944 31.7122L54.8338 9.65156C55.0459 9.43943 55.258 9.33337 55.5762 9.33337C55.8944 9.33337 56.1065 9.43943 56.3186 9.65156C62.7883 15.4849 66.3944 23.8637 66.3944 32.4546C66.3944 39.3485 64.061 46.2425 59.7125 51.6516C59.5004 51.8637 59.1822 51.9697 58.8641 51.9697ZM37.2277 32.2425C40.4095 34.7879 51.758 43.9091 58.758 49.4243C62.3641 44.4394 64.3792 38.5 64.3792 32.3485C64.3792 24.6061 61.1974 17.1819 55.7883 11.7728L37.2277 32.2425Z" fill="url(#paint4_linear_14_11637)"/>
<path d="M39.0307 67.7727C38.8186 67.7727 38.6065 67.6666 38.3944 67.5606C38.1822 67.3485 38.0762 67.1363 37.9701 66.8181L34.5762 37.2272C34.5762 36.803 34.7883 36.3788 35.1065 36.1666C35.5307 35.9545 35.955 35.9545 36.2731 36.2727C36.3792 36.3788 51.5459 48.6818 59.5004 54.8333C59.7125 55.0454 59.8186 55.2575 59.9247 55.5757C59.9247 55.8939 59.9247 56.106 59.7125 56.3182C54.7277 62.5757 47.3034 66.8182 39.1368 67.7727H39.0307ZM37.0156 39.5606L39.9853 65.5454C46.7731 64.4848 53.0307 60.9848 57.3792 55.8939C51.0156 50.9091 41.1519 42.9545 37.0156 39.5606Z" fill="url(#paint5_linear_14_11637)"/>
<path d="M65.3337 33.4091H35.6368C35.0004 33.4091 34.5762 32.9848 34.5762 32.3484C34.5762 31.7121 35.0004 31.2878 35.6368 31.2878H65.3337C65.9701 31.2878 66.3944 31.7121 66.3944 32.3484C66.3944 32.9848 65.9701 33.4091 65.3337 33.4091Z" fill="url(#paint6_linear_14_11637)"/>
<path d="M64.59 26.8334H41.4688C40.8324 26.8334 40.4082 26.4091 40.4082 25.7728C40.4082 25.1364 40.8324 24.7122 41.4688 24.7122H64.59C65.2264 24.7122 65.6506 25.1364 65.6506 25.7728C65.6506 26.4091 65.2264 26.8334 64.59 26.8334Z" fill="url(#paint7_linear_14_11637)"/>
<path d="M62.3628 20.3636H47.4083C46.7719 20.3636 46.3477 19.9394 46.3477 19.303C46.3477 18.6667 46.7719 18.2424 47.4083 18.2424H62.3628C62.9992 18.2424 63.4234 18.6667 63.4234 19.303C63.4234 19.9394 62.9992 20.3636 62.3628 20.3636Z" fill="url(#paint8_linear_14_11637)"/>
<path d="M62.3633 46.3485H51.8633C51.227 46.3485 50.8027 45.9243 50.8027 45.2879C50.8027 44.6515 51.227 44.2273 51.8633 44.2273H62.3633C62.9997 44.2273 63.4239 44.6515 63.4239 45.2879C63.4239 45.9243 62.9997 46.3485 62.3633 46.3485Z" fill="url(#paint9_linear_14_11637)"/>
<path d="M64.5913 39.8788H43.6973C43.061 39.8788 42.6367 39.4545 42.6367 38.8182C42.6367 38.1818 43.061 37.7576 43.6973 37.7576H64.5913C65.2276 37.7576 65.6519 38.1818 65.6519 38.8182C65.6519 39.4545 65.2276 39.8788 64.5913 39.8788Z" fill="url(#paint10_linear_14_11637)"/>
<defs>
<linearGradient id="paint0_linear_14_11637" x1="17.5534" y1="21.2391" x2="17.5534" y2="35.8484" gradientUnits="userSpaceOnUse">
<stop offset="0.331731" stop-color="#1ECCF3"/>
<stop offset="1" stop-color="#3055EB"/>
</linearGradient>
<linearGradient id="paint1_linear_14_11637" x1="14.9051" y1="20.0454" x2="14.9051" y2="26.409" gradientUnits="userSpaceOnUse">
<stop offset="0.331731" stop-color="#1ECCF3"/>
<stop offset="1" stop-color="#3055EB"/>
</linearGradient>
<linearGradient id="paint2_linear_14_11637" x1="20.2078" y1="30.7576" x2="20.2078" y2="37.0151" gradientUnits="userSpaceOnUse">
<stop offset="0.331731" stop-color="#1ECCF3"/>
<stop offset="1" stop-color="#3055EB"/>
</linearGradient>
<linearGradient id="paint3_linear_14_11637" x1="25.8788" y1="0" x2="25.8788" y2="61.5152" gradientUnits="userSpaceOnUse">
<stop offset="0.331731" stop-color="#1ECCF3"/>
<stop offset="1" stop-color="#3055EB"/>
</linearGradient>
<linearGradient id="paint4_linear_14_11637" x1="50.4853" y1="9.33337" x2="50.4853" y2="51.9697" gradientUnits="userSpaceOnUse">
<stop offset="0.331731" stop-color="#1ECCF3"/>
<stop offset="1" stop-color="#3055EB"/>
</linearGradient>
<linearGradient id="paint5_linear_14_11637" x1="47.2504" y1="36.0188" x2="47.2504" y2="67.7727" gradientUnits="userSpaceOnUse">
<stop offset="0.331731" stop-color="#1ECCF3"/>
<stop offset="1" stop-color="#3055EB"/>
</linearGradient>
<linearGradient id="paint6_linear_14_11637" x1="50.4853" y1="31.2878" x2="50.4853" y2="33.4091" gradientUnits="userSpaceOnUse">
<stop offset="0.331731" stop-color="#1ECCF3"/>
<stop offset="1" stop-color="#3055EB"/>
</linearGradient>
<linearGradient id="paint7_linear_14_11637" x1="53.0294" y1="24.7122" x2="53.0294" y2="26.8334" gradientUnits="userSpaceOnUse">
<stop offset="0.331731" stop-color="#1ECCF3"/>
<stop offset="1" stop-color="#3055EB"/>
</linearGradient>
<linearGradient id="paint8_linear_14_11637" x1="54.8855" y1="18.2424" x2="54.8855" y2="20.3636" gradientUnits="userSpaceOnUse">
<stop offset="0.331731" stop-color="#1ECCF3"/>
<stop offset="1" stop-color="#3055EB"/>
</linearGradient>
<linearGradient id="paint9_linear_14_11637" x1="57.1133" y1="44.2273" x2="57.1133" y2="46.3485" gradientUnits="userSpaceOnUse">
<stop offset="0.331731" stop-color="#1ECCF3"/>
<stop offset="1" stop-color="#3055EB"/>
</linearGradient>
<linearGradient id="paint10_linear_14_11637" x1="54.1443" y1="37.7576" x2="54.1443" y2="39.8788" gradientUnits="userSpaceOnUse">
<stop offset="0.331731" stop-color="#1ECCF3"/>
<stop offset="1" stop-color="#3055EB"/>
</linearGradient>
</defs>
</svg>
