<svg width="35" height="40" viewBox="0 0 35 40" fill="none" xmlns="http://www.w3.org/2000/svg">
<path d="M17.3273 39.9999C17.2118 39.9999 17.102 39.9537 17.0211 39.8729L0.127805 22.9796C-0.0426016 22.8092 -0.0426016 22.5348 0.127805 22.3673L16.9865 5.50866C17.1569 5.33826 17.4313 5.33826 17.5988 5.50866L27.5575 15.4673C27.7279 15.6377 27.7279 15.9121 27.5575 16.0796C27.387 16.2471 27.1127 16.25 26.9451 16.0796L17.2926 6.43001L1.04627 22.6734L17.3244 38.9544L33.5708 22.7081L31.4739 20.6112C31.3035 20.4408 31.3035 20.1664 31.4739 19.9989C31.6443 19.8285 31.9187 19.8285 32.0862 19.9989L34.4892 22.4019C34.6596 22.5723 34.6596 22.8467 34.4892 23.0142L17.6306 39.8729C17.5497 39.9537 17.4399 39.9999 17.3244 39.9999H17.3273Z" fill="#070C0F"/>
<path d="M17.3273 34.6162C17.2175 34.6162 17.1049 34.5729 17.0211 34.4891L4.58148 22.0524C4.41107 21.882 4.41107 21.6076 4.58148 21.4401C4.75188 21.2697 5.02627 21.2697 5.19378 21.4401L17.3244 33.5707L33.5708 17.3243L17.2926 1.04626L1.04627 17.2926L3.12869 19.375C3.2991 19.5454 3.2991 19.8198 3.12869 19.9873C2.95828 20.1577 2.6839 20.1577 2.51638 19.9873L0.127805 17.5987C-0.0426016 17.4283 -0.0426016 17.1539 0.127805 16.9864L16.9865 0.127804C17.1569 -0.0426014 17.4313 -0.0426014 17.5988 0.127804L34.4921 17.0211C34.573 17.1019 34.6192 17.2117 34.6192 17.3272C34.6192 17.4428 34.573 17.5525 34.4921 17.6334L17.6334 34.492C17.5497 34.5758 17.437 34.6191 17.3273 34.6191V34.6162Z" fill="#070C0F"/>
<path d="M17.3106 21.7349C16.8658 21.7349 16.421 21.5674 16.0831 21.2266C15.4072 20.5507 15.4072 19.4503 16.0831 18.7745C16.7589 18.0986 17.8593 18.0986 18.5352 18.7745C19.211 19.4503 19.211 20.5507 18.5352 21.2266C18.1973 21.5645 17.7525 21.7349 17.3077 21.7349H17.3106ZM17.3106 19.1326C17.0882 19.1326 16.8658 19.2164 16.6983 19.3868C16.3603 19.7247 16.3603 20.2763 16.6983 20.6143C17.0362 20.9522 17.5878 20.9522 17.9258 20.6143C18.2637 20.2763 18.2637 19.7247 17.9258 19.3868C17.7554 19.2164 17.533 19.1326 17.3106 19.1326Z" fill="#070C0F"/>
</svg>
