<svg width="31" height="40" viewBox="0 0 31 40" fill="none" xmlns="http://www.w3.org/2000/svg">
<path d="M15.7166 30.0644C15.6069 30.0644 15.4943 30.0211 15.4106 29.9374L10.3938 24.9229C10.313 24.8421 10.2668 24.7324 10.2668 24.6169C10.2668 24.5014 10.313 24.3917 10.3938 24.3109L13.4449 21.2595C13.6152 21.0892 13.8894 21.0892 14.0568 21.2595C14.2271 21.4298 14.2271 21.7041 14.0568 21.8715L11.3117 24.6169L15.7137 29.0194L29.6988 15.0326L15.7137 1.04576L1.72851 15.0326L5.78408 19.0886C5.95438 19.2589 5.95438 19.5332 5.78408 19.7006C5.61377 19.8709 5.33954 19.8709 5.17212 19.7006L0.810601 15.3386C0.729779 15.2577 0.683594 15.148 0.683594 15.0326C0.683594 14.9171 0.729779 14.8074 0.810601 14.7266L15.4077 0.127743C15.578 -0.0425811 15.8522 -0.0425811 16.0196 0.127743L30.6167 14.7266C30.7871 14.8969 30.7871 15.1711 30.6167 15.3386L16.0196 29.9374C15.9359 30.0211 15.8234 30.0644 15.7137 30.0644H15.7166Z" fill="#AEE317"/>
<path d="M15.0301 39.9999C14.9146 39.9999 14.8049 39.9538 14.7241 39.8729L0.127007 25.2741C0.0461849 25.1933 0 25.0836 0 24.9681C0 24.8526 0.0461849 24.7429 0.127007 24.6621L14.7241 10.0633C14.8944 9.89297 15.1686 9.89297 15.336 10.0633L20.3499 15.0777C20.5202 15.2481 20.5202 15.5223 20.3499 15.6898L17.3768 18.6632C17.2065 18.8335 16.9323 18.8335 16.7649 18.6632C16.5946 18.4929 16.5946 18.2186 16.7649 18.0512L19.432 15.3838L15.0301 10.9813L1.04492 24.9681L15.0301 38.9549L29.0152 24.9681L24.9597 20.9121C24.7894 20.7418 24.7894 20.4675 24.9597 20.3001C25.13 20.1326 25.4042 20.1297 25.5716 20.3001L29.9332 24.6621C30.1035 24.8324 30.1035 25.1067 29.9332 25.2741L15.336 39.8729C15.2552 39.9538 15.1455 39.9999 15.0301 39.9999Z" fill="#AEE317"/>
<path d="M15.4662 21.1322C14.7244 21.1322 14.1211 20.5461 14.1211 19.8273C14.1211 19.1085 14.7244 18.5225 15.4662 18.5225C16.2081 18.5225 16.8113 19.1085 16.8113 19.8273C16.8113 20.5461 16.2081 21.1322 15.4662 21.1322ZM15.4662 19.3914C15.2035 19.3914 14.987 19.5877 14.987 19.8302C14.987 20.0727 15.2007 20.269 15.4662 20.269C15.7318 20.269 15.9454 20.0727 15.9454 19.8302C15.9454 19.5877 15.7318 19.3914 15.4662 19.3914Z" fill="#AEE317"/>
</svg>
