<svg width="47" height="40" viewBox="0 0 47 40" fill="none" xmlns="http://www.w3.org/2000/svg">
<path d="M15.4602 18.7054C14.8594 18.7054 14.2586 18.4771 13.8019 18.0238C13.3557 17.5811 13.1133 16.9944 13.1133 16.369C13.1133 15.7436 13.3592 15.1569 13.8019 14.7142C14.7154 13.8042 16.2086 13.8042 17.1221 14.7142C17.5648 15.1569 17.8107 15.7436 17.8107 16.369C17.8107 16.9944 17.5648 17.5811 17.1221 18.0238C16.6653 18.4771 16.0645 18.7054 15.4602 18.7054ZM15.4602 15.0831C15.1265 15.0831 14.7962 15.2096 14.5432 15.4591C14.3008 15.7015 14.1638 16.0247 14.1638 16.3655C14.1638 16.7063 14.2973 17.0295 14.5432 17.272C15.0492 17.7744 15.8713 17.7744 16.3772 17.272C16.6197 17.0295 16.7567 16.7063 16.7567 16.3655C16.7567 16.0247 16.6232 15.7015 16.3772 15.4591C16.1243 15.2061 15.7905 15.0831 15.4602 15.0831Z" fill="#070C0F"/>
<path d="M34.4603 39.993H11.8375C11.6478 39.993 11.4721 39.8911 11.3772 39.726C11.2824 39.5608 11.2859 39.357 11.3843 39.1954L12.758 36.9223L29.1058 10.231C29.2569 9.98155 29.5837 9.90426 29.8296 10.0553C30.079 10.2064 30.1563 10.5332 30.0053 10.7791L13.6574 37.4704L12.7685 38.9425H34.1546L45.1585 19.9982L34.1546 1.05402H12.1397L1.1357 19.9982L10.5762 36.2512C10.7238 36.5042 10.6359 36.8239 10.3865 36.9715C10.1335 37.119 9.81379 37.0312 9.66623 36.7817L0.0711462 20.2653C-0.0237154 20.1001 -0.0237154 19.8999 0.0711462 19.7347L11.3843 0.263505C11.4791 0.101888 11.6513 0 11.841 0H34.4638C34.65 0 34.8256 0.0983751 34.9205 0.263505L46.2336 19.7347C46.3285 19.8999 46.3285 20.1001 46.2336 20.2653L34.9205 39.7365C34.8256 39.8981 34.6535 40 34.4638 40L34.4603 39.993Z" fill="#070C0F"/>
<path d="M20.4665 25.8726C20.1784 25.8726 19.943 25.6408 19.9395 25.3492C19.9395 25.0575 20.1713 24.8186 20.463 24.8186L42.7695 24.6289H42.773C43.0611 24.6289 43.2965 24.8608 43.3 25.1524C43.3 25.444 43.0681 25.6829 42.7765 25.6829L20.47 25.8726H20.4665Z" fill="#070C0F"/>
</svg>
